<?xml version="1.0" standalone="no"?><svg xmlns="http://www.w3.org/2000/svg" viewBox="0 0 1440 320"><path fill="#132A3C" fill-opacity="0.7" d="M0,0L21.8,37.3C43.6,75,87,149,131,160C174.5,171,218,117,262,112C305.5,107,349,149,393,181.3C436.4,213,480,235,524,208C567.3,181,611,107,655,74.7C698.2,43,742,53,785,69.3C829.1,85,873,107,916,122.7C960,139,1004,149,1047,149.3C1090.9,149,1135,139,1178,160C1221.8,181,1265,235,1309,234.7C1352.7,235,1396,181,1418,154.7L1440,128L1440,320L1418.2,320C1396.4,320,1353,320,1309,320C1265.5,320,1222,320,1178,320C1134.5,320,1091,320,1047,320C1003.6,320,960,320,916,320C872.7,320,829,320,785,320C741.8,320,698,320,655,320C610.9,320,567,320,524,320C480,320,436,320,393,320C349.1,320,305,320,262,320C218.2,320,175,320,131,320C87.3,320,44,320,22,320L0,320Z"></path></svg>